# xmcd
#
# Track frame offsets:
#	150
#	24075
#	42675
#	57900
#	77625
#	92025
#	111525
#	131025
#	145425
#	160050
#	179025
#	195225
#	210750
#	229875
#	249825
#
# Disc length: 3523 seconds
#
# Revision: 0
# Processed by: cddbd v1.5PL3 Copyright (c) Steve Scherf et al.
# Submitted via: EasyCDDAExtractor 5.0.5.1
#
DISCID=ca0dc10f
DTITLE=Various Artist - Marco Brasil - Festa de Rodeio II
DYEAR=1900
DGENRE=country
TTITLE0=Tião Carreiro e Pardim - Abertura
TTITLE1=Leandro e Leonardo - Cerveja
TTITLE2=Sérgio Reis - Vanerao do Coroa
TTITLE3=Rick e Renner - Saudade pesada
TTITLE4=Mark O'Connor - Diggy Liggy Lo
TTITLE5=Cézar e Paulinho - Forró Bailão
TTITLE6=João Paulo e Daniel - A Loira do Carro Branco
TTITLE7=Tião Carreiro e Pardim - Oi Paixão
TTITLE8=Bruno e Marrone - O Campeão
TTITLE9=Chrystian e Ralf - La Cautiva
TTITLE10=Milionário e José Rico - Vá pro Inferno com seu Amor
TTITLE11=Gaúcho da Fronteira - Segura o Tchê
TTITLE12=Gian e Giovani - De que Planeta Você veio
TTITLE13=Dwight Yoakan - A Thousand Miles from Nowhere
TTITLE14=Banda Búfalo - Festa Country (Pout-Pourry)
EXTD=
EXTT0=
EXTT1=
EXTT2=
EXTT3=
EXTT4=
EXTT5=
EXTT6=
EXTT7=
EXTT8=
EXTT9=
EXTT10=
EXTT11=
EXTT12=
EXTT13=
EXTT14=
PLAYORDER=
